<?xml version="1.0" encoding="utf-8"?>
<!-- Generator: Adobe Illustrator 16.2.0, SVG Export Plug-In . SVG Version: 6.00 Build 0)  -->
<!DOCTYPE svg PUBLIC "-//W3C//DTD SVG 1.1 Basic//EN" "http://www.w3.org/Graphics/SVG/1.1/DTD/svg11-basic.dtd">
<svg version="1.1" baseProfile="basic" xmlns="http://www.w3.org/2000/svg" xmlns:xlink="http://www.w3.org/1999/xlink" x="0px"
	 y="0px" width="72px" height="72px" viewBox="0 0 72 72" xml:space="preserve">
<g id="_x2D_-_BLANK_--">
</g>
<g id="Layer_2">
	<path fill="none" stroke="#48B649" stroke-width="1.5354" stroke-miterlimit="10" d="M39.546,26.19c0,0,4.228-6.792,4.625-9.375
		c0.375-2.438-1.5-9.75-1.5-9.75"/>
	<path fill="none" stroke="#48B649" stroke-width="1.4954" stroke-miterlimit="10" d="M42.022,27.263c0,0,2.675-7.704,4.665-9.393
		c1.878-1.594,6.64-8.524,6.64-8.524"/>
	<path fill="none" stroke="#48B649" stroke-width="1.4954" stroke-miterlimit="10" d="M43.141,28.009c0,0,2.981-7.303,4.811-9.166
		c1.725-1.758,8.623-4.767,8.623-4.767"/>
	<g id="Left_greens">
		
			<rect x="42.5" y="2.75" transform="matrix(0.6844 -0.7291 0.7291 0.6844 10.4576 34.5365)" fill="#39B54A" stroke="#000000" stroke-width="0.5" stroke-miterlimit="10" width="5.251" height="4.875"/>
		
			<rect x="40.25" y="4.5" transform="matrix(0.9413 -0.3376 0.3376 0.9413 0.1749 14.8807)" fill="#39B54A" stroke="#000000" stroke-width="0.5" stroke-miterlimit="10" width="5.251" height="4.875"/>
		
			<rect x="40.375" y="8.875" transform="matrix(0.8232 -0.5677 0.5677 0.8232 1.1784 26.4098)" fill="#39B54A" stroke="#000000" stroke-width="0.5" stroke-miterlimit="10" width="5.25" height="4.875"/>
		
			<rect x="36.25" y="2.875" transform="matrix(0.9413 -0.3376 0.3376 0.9413 0.4886 13.435)" fill="#39B54A" stroke="#000000" stroke-width="0.5" stroke-miterlimit="10" width="5.251" height="4.875"/>
	</g>
	<g id="Center_greens">
		
			<rect x="52.375" y="5" transform="matrix(0.9413 -0.3376 0.3376 0.9413 0.7178 19.0031)" fill="#39B54A" stroke="#000000" stroke-width="0.5" stroke-miterlimit="10" width="5.251" height="4.875"/>
		
			<rect x="47.885" y="7.712" transform="matrix(0.823 -0.568 0.568 0.823 3.1742 30.4875)" fill="#39B54A" stroke="#000000" stroke-width="0.5" stroke-miterlimit="10" width="5.251" height="4.876"/>
		
			<rect x="50.25" y="2.25" transform="matrix(0.9413 -0.3376 0.3376 0.9413 1.5214 18.1243)" fill="#39B54A" stroke="#000000" stroke-width="0.5" stroke-miterlimit="10" width="5.251" height="4.875"/>
	</g>
	<g id="Right_greens">
		
			<rect x="61.626" y="4" transform="matrix(0.9671 -0.2543 0.2543 0.9671 0.4755 16.5529)" fill="#39B54A" stroke="#000000" stroke-width="0.5" stroke-miterlimit="10" width="5.249" height="4.875"/>
		
			<rect x="58.375" y="7.75" transform="matrix(0.9544 -0.2986 0.2986 0.9544 -0.2588 18.6809)" fill="#39B54A" stroke="#000000" stroke-width="0.5" stroke-miterlimit="10" width="5.25" height="4.875"/>
		
			<rect x="63.25" y="9.375" fill="#39B54A" stroke="#000000" stroke-width="0.5" stroke-miterlimit="10" width="5.25" height="4.875"/>
		
			<rect x="54.876" y="11" transform="matrix(0.9995 0.0315 -0.0315 0.9995 0.4523 -1.8064)" fill="#39B54A" stroke="#000000" stroke-width="0.5" stroke-miterlimit="10" width="5.25" height="4.875"/>
	</g>
</g>
<g id="Layer_5">
	<path fill="none" stroke="#000000" stroke-width="0.5" stroke-miterlimit="10" d="M43.447,28.054c0,0,3.193-6.648,4.887-8.387
		c1.192-1.224,4.404-2.726,5.901-3.447"/>
	<path fill="none" stroke="#000000" stroke-width="0.5" stroke-miterlimit="10" d="M44.917,13.333c0,0.958,0.27,2.894,0.083,3.833
		c-0.129,0.649-1.083,2.417-1.083,2.417l-3.083,5.75"/>
	<path fill="none" stroke="#000000" stroke-width="0.5" stroke-miterlimit="10" d="M52,12.583c0,0-1.813,2.428-2.5,3.167
		c-0.622,0.668-2.03,1.856-2.583,2.583c-0.666,0.876-2.167,3.833-2.167,3.833"/>
</g>
<g id="Layer_3">
	<path fill="#F68A40" stroke="#000000" stroke-width="1.5354" stroke-miterlimit="10" d="M8.426,66.685
		c0,0,49.896-28.768,32.209-40.417C22.949,14.62,8.426,66.685,8.426,66.685z"/>
	<g id="Layer_4">
		<path fill="none" stroke="#000000" stroke-width="0.75" stroke-miterlimit="10" d="M36.628,26.493
			c0,1.478,3.667,3.167,5.068,3.042c0.04-0.003,0.14,0.083,0.14,0.083"/>
		<path fill="none" stroke="#000000" stroke-width="0.75" stroke-miterlimit="10" d="M29.688,29.938c0,3.134,6.953,6.713,9.61,6.448
			c0.076-0.007,0.265,0.177,0.265,0.177"/>
		<path fill="none" stroke="#000000" stroke-width="0.75" stroke-miterlimit="10" d="M25.984,35.103c0,3.134,6.953,6.713,9.61,6.448
			c0.076-0.008,0.265,0.177,0.265,0.177"/>
		<path fill="none" stroke="#000000" stroke-width="0.75" stroke-miterlimit="10" d="M22.281,40.268c0,3.134,6.953,6.713,9.61,6.448
			c0.076-0.008,0.265,0.177,0.265,0.177"/>
		<path fill="none" stroke="#000000" stroke-width="0.75" stroke-miterlimit="10" d="M18.953,45.683c0,2.603,6.15,5.575,8.501,5.355
			c0.067-0.007,0.234,0.146,0.234,0.146"/>
		<path fill="none" stroke="#000000" stroke-width="0.75" stroke-miterlimit="10" d="M15.882,51.221
			c0,2.063,4.425,4.421,6.116,4.247c0.049-0.007,0.168,0.115,0.168,0.115"/>
	</g>
</g>
</svg>
