<?xml version="1.0" encoding="utf-8"?>
<!-- Generator: Adobe Illustrator 16.2.0, SVG Export Plug-In . SVG Version: 6.00 Build 0)  -->
<!DOCTYPE svg PUBLIC "-//W3C//DTD SVG 1.1 Basic//EN" "http://www.w3.org/Graphics/SVG/1.1/DTD/svg11-basic.dtd">
<svg version="1.1" baseProfile="basic" xmlns="http://www.w3.org/2000/svg" xmlns:xlink="http://www.w3.org/1999/xlink" x="0px"
	 y="0px" width="72px" height="72px" viewBox="0 0 72 72" xml:space="preserve">
<g id="_x2D_-_BLANK_--">
</g>
<g id="mortarboard">
	<path d="M60.033,48.301c0,0-5.617-14.814-14.342-13.908c-8.646,0.899-22.804,11.628-22.804,18.451
		c0,6.824,9.331,23.752,17.351,12.24C46.049,56.748,60.033,48.301,60.033,48.301z"/>
	<g>
		<polygon points="2.769,28.724 15.647,63.031 69.434,30.172 43.17,3.829 		"/>
		<polygon fill="none" stroke="#BCBEC0" stroke-width="1.4338" stroke-miterlimit="10" points="2.769,28.724 15.647,63.031 
			69.434,30.172 43.17,3.829 		"/>
	</g>
	<g id="Layer_4">
		<polyline fill="none" stroke="#000000" stroke-width="0.49" stroke-miterlimit="10" points="66.922,30.581 66.677,33.276 
			64.962,38.422 65.043,55.002 		"/>
		
			<line fill="none" stroke="#000000" stroke-width="0.49" stroke-miterlimit="10" x1="66.298" y1="30.581" x2="66.348" y2="55.002"/>
		<polyline fill="none" stroke="#000000" stroke-width="0.49" stroke-miterlimit="10" points="65.735,30.581 65.98,33.276 
			67.695,38.422 67.613,55.002 		"/>
	</g>
</g>
<g id="Letter">
	<text transform="matrix(1.4649 0 0 1 18.127 40.4238)" fill="#FFFFFF" font-family="'Arial-BoldMT'" font-size="28">M</text>
</g>
</svg>
